<svg xmlns="http://www.w3.org/2000/svg" xmlns:svg="http://www.w3.org/2000/svg" id="svg2985" width="397.216" height="261.143" version="1.1" xml:space="preserve"><metadata id="metadata2991"/><defs id="defs2989"><clipPath id="clipPath2999" clipPathUnits="userSpaceOnUse"><path id="path3001" d="m 0,0.1 595.2,0 0,841.8 L 0,841.9 0,0.1 z" clip-rule="evenodd"/></clipPath><clipPath id="clipPath3007" clipPathUnits="userSpaceOnUse"><path id="path3009" d="m 56.7,771.2 481.8,0 0,14.1 -481.8,0 0,-14.1 z" clip-rule="evenodd"/></clipPath><clipPath id="clipPath3025" clipPathUnits="userSpaceOnUse"><path id="path3027" d="m 56.7,56.8 481.8,0 0,14.1 -481.8,0 0,-14.1 z" clip-rule="evenodd"/></clipPath><clipPath id="clipPath3049" clipPathUnits="userSpaceOnUse"><path id="path3051" d="m 56.6,499.4 384,0 0,264.6 -384,0 0,-264.6 z" clip-rule="evenodd"/></clipPath><clipPath id="clipPath3637" clipPathUnits="userSpaceOnUse"><path id="path3639" d="m -9,420 613,0 0,0.1 -613,0 0,-0.1 z"/></clipPath></defs><g id="g2993" transform="matrix(1.25,0,0,-1.25,-133.40869,919.60937)"><path id="path3057" fill="none" stroke="gray" d="m 276.7,543.7 -144.3,0 0,188.5 288.6,0 0,-188.5 -144.3,0 z"/><path id="path3061" fill="none" stroke="gray" d="m 421,543.7 -288.6,0"/><path id="path3113" fill="none" stroke="gray" d="m 132.4,539.5 0,4.2"/><path id="path3117" fill="none" stroke="gray" d="m 132.4,539.5 0,4.2"/><path id="path3121" fill="none" stroke="gray" d="m 161.2,539.5 0,4.2"/><path id="path3125" fill="none" stroke="gray" d="m 161.2,539.5 0,4.2"/><path id="path3129" fill="none" stroke="gray" d="m 190.1,539.5 0,4.2"/><path id="path3133" fill="none" stroke="gray" d="m 190.1,539.5 0,4.2"/><path id="path3137" fill="none" stroke="gray" d="m 218.9,539.5 0,4.2"/><path id="path3141" fill="none" stroke="gray" d="m 218.9,539.5 0,4.2"/><path id="path3145" fill="none" stroke="gray" d="m 247.8,539.5 0,4.2"/><path id="path3149" fill="none" stroke="gray" d="m 247.8,539.5 0,4.2"/><path id="path3153" fill="none" stroke="gray" d="m 276.7,539.5 0,4.2"/><path id="path3157" fill="none" stroke="gray" d="m 276.7,539.5 0,4.2"/><path id="path3161" fill="none" stroke="gray" d="m 305.5,539.5 0,4.2"/><path id="path3165" fill="none" stroke="gray" d="m 305.5,539.5 0,4.2"/><path id="path3169" fill="none" stroke="gray" d="m 334.4,539.5 0,4.2"/><path id="path3173" fill="none" stroke="gray" d="m 334.4,539.5 0,4.2"/><path id="path3177" fill="none" stroke="gray" d="m 363.2,539.5 0,4.2"/><path id="path3181" fill="none" stroke="gray" d="m 363.2,539.5 0,4.2"/><path id="path3185" fill="none" stroke="gray" d="m 392.1,539.5 0,4.2"/><path id="path3189" fill="none" stroke="gray" d="m 392.1,539.5 0,4.2"/><path id="path3193" fill="none" stroke="gray" d="m 421,539.5 0,4.2"/><path id="path3197" fill="none" stroke="gray" d="m 421,539.5 0,4.2"/><path id="path3201" fill="none" stroke="gray" d="m 132.4,543.7 288.6,0"/><path id="path3205" fill="none" stroke="gray" d="m 128.1,543.7 4.3,0"/><path id="path3209" fill="none" stroke="gray" d="m 128.1,543.7 4.3,0"/><path id="path3213" fill="none" stroke="gray" d="m 128.1,559.4 4.3,0"/><path id="path3217" fill="none" stroke="gray" d="m 128.1,559.4 4.3,0"/><path id="path3221" fill="none" stroke="gray" d="m 128.1,575.1 4.3,0"/><path id="path3225" fill="none" stroke="gray" d="m 128.1,575.1 4.3,0"/><path id="path3229" fill="none" stroke="gray" d="m 128.1,590.9 4.3,0"/><path id="path3233" fill="none" stroke="gray" d="m 128.1,590.9 4.3,0"/><path id="path3237" fill="none" stroke="gray" d="m 128.1,606.6 4.3,0"/><path id="path3241" fill="none" stroke="gray" d="m 128.1,606.6 4.3,0"/><path id="path3245" fill="none" stroke="gray" d="m 128.1,622.3 4.3,0"/><path id="path3249" fill="none" stroke="gray" d="m 128.1,622.3 4.3,0"/><path id="path3253" fill="none" stroke="gray" d="m 128.1,638 4.3,0"/><path id="path3257" fill="none" stroke="gray" d="m 128.1,638 4.3,0"/><path id="path3261" fill="none" stroke="gray" d="m 128.1,653.7 4.3,0"/><path id="path3265" fill="none" stroke="gray" d="m 128.1,653.7 4.3,0"/><path id="path3269" fill="none" stroke="gray" d="m 128.1,669.4 4.3,0"/><path id="path3273" fill="none" stroke="gray" d="m 128.1,669.4 4.3,0"/><path id="path3277" fill="none" stroke="gray" d="m 128.1,685.1 4.3,0"/><path id="path3281" fill="none" stroke="gray" d="m 128.1,685.1 4.3,0"/><path id="path3285" fill="none" stroke="gray" d="m 128.1,700.9 4.3,0"/><path id="path3289" fill="none" stroke="gray" d="m 128.1,700.9 4.3,0"/><path id="path3293" fill="none" stroke="gray" d="m 128.1,716.6 4.3,0"/><path id="path3297" fill="none" stroke="gray" d="m 128.1,716.6 4.3,0"/><path id="path3301" fill="none" stroke="gray" d="m 128.1,732.3 4.3,0"/><path id="path3305" fill="none" stroke="gray" d="m 128.1,732.3 4.3,0"/><path id="path3309" fill="none" stroke="gray" d="m 132.4,543.7 0,188.6"/><path id="path3319" fill="none" stroke="none" d="m 157.7,621.9 3.5,-3.5 3.6,3.5 -3.6,3.6 -3.5,-3.6 z"/><path id="path3325" fill="none" stroke="none" d="m 186.5,612.4 3.6,-3.6 3.5,3.6 -3.5,3.5 -3.6,-3.5 z"/><path id="path3331" fill="none" stroke="none" d="m 201,607.8 3.5,-3.6 3.6,3.6 -3.6,3.5 -3.5,-3.5 z"/><path id="path3337" fill="none" stroke="none" d="m 273.1,596.6 3.6,-3.5 3.5,3.5 -3.5,3.5 -3.6,-3.5 z"/><path id="path3343" fill="none" stroke="none" d="m 417.4,578.9 3.6,-3.6 3.5,3.6 -3.5,3.5 -3.6,-3.5 z"/><g id="g5850" stroke-dasharray="none" stroke-miterlimit="4" stroke-width=".16"><path id="path3101" fill="none" stroke="gray" stroke-dasharray="none" stroke-miterlimit="4" stroke-width=".16" d="m 421,700.9 -288.6,0"/><path id="path3065" fill="none" stroke="gray" stroke-dasharray="none" stroke-miterlimit="4" stroke-width=".16" d="m 421,559.4 -288.6,0"/><path id="path3069" fill="none" stroke="gray" stroke-dasharray="none" stroke-miterlimit="4" stroke-width=".16" d="m 421,575.1 -288.6,0"/><path id="path3073" fill="none" stroke="gray" stroke-dasharray="none" stroke-miterlimit="4" stroke-width=".16" d="m 421,590.9 -288.6,0"/><path id="path3077" fill="none" stroke="gray" stroke-dasharray="none" stroke-miterlimit="4" stroke-width=".16" d="m 421,606.6 -288.6,0"/><path id="path3081" fill="none" stroke="gray" stroke-dasharray="none" stroke-miterlimit="4" stroke-width=".16" d="m 421,622.3 -288.6,0"/><path id="path3085" fill="none" stroke="gray" stroke-dasharray="none" stroke-miterlimit="4" stroke-width=".16" d="m 421,638 -288.6,0"/><path id="path3089" fill="none" stroke="gray" stroke-dasharray="none" stroke-miterlimit="4" stroke-width=".16" d="m 421,653.7 -288.6,0"/><path id="path3093" fill="none" stroke="gray" stroke-dasharray="none" stroke-miterlimit="4" stroke-width=".16" d="m 421,669.4 -288.6,0"/><path id="path3097" fill="none" stroke="gray" stroke-dasharray="none" stroke-miterlimit="4" stroke-width=".16" d="m 421,685.1 -288.6,0"/><path id="path3105" fill="none" stroke="gray" stroke-dasharray="none" stroke-miterlimit="4" stroke-width=".16" d="m 421,716.6 -288.6,0"/><path id="path3109" fill="none" stroke="gray" stroke-dasharray="none" stroke-miterlimit="4" stroke-width=".16" d="m 421,732.3 -288.6,0"/></g><path id="path3347" fill="none" stroke="#004586" stroke-dasharray="none" stroke-linecap="butt" stroke-linejoin="round" stroke-miterlimit="4" stroke-opacity="1" stroke-width="2.264" d="m 161.2,696.2 28.9,0 14.4,0 72.2,0 144.3,0"/><path id="path3349" fill="#004586" fill-opacity="1" fill-rule="evenodd" stroke="none" d="m 157.7,699.8 0,-7.1 7.1,0 0,7.1 -7.1,0 z"/><path id="path3353" fill="none" stroke="none" d="m 157.7,699.8 0,-7.1 7.1,0 0,7.1 -7.1,0 z"/><path id="path3359" fill="none" stroke="none" d="m 186.5,699.8 0,-7.1 7.1,0 0,7.1 -7.1,0 z"/><path id="path3361" fill="#004586" fill-opacity="1" fill-rule="evenodd" stroke="none" d="m 201,699.8 0,-7.1 7.1,0 0,7.1 -7.1,0 z"/><path id="path3365" fill="none" stroke="none" d="m 201,699.8 0,-7.1 7.1,0 0,7.1 -7.1,0 z"/><path id="path3367" fill="#004586" fill-opacity="1" fill-rule="evenodd" stroke="none" d="m 273.1,699.8 0,-7.1 7.1,0 0,7.1 -7.1,0 z"/><path id="path3371" fill="none" stroke="none" d="m 273.1,699.8 0,-7.1 7.1,0 0,7.1 -7.1,0 z"/><path id="path3373" fill="#004586" fill-opacity="1" fill-rule="evenodd" stroke="none" d="m 417.4,699.8 0,-7.1 7.1,0 0,7.1 -7.1,0 z"/><path id="path3377" fill="none" stroke="none" d="m 417.4,699.8 0,-7.1 7.1,0 0,7.1 -7.1,0 z"/><text id="text3381" x="129.7" y="-526.9" transform="scale(1,-1)"><tspan id="tspan3383" x="129.7" y="-526.9" fill="#000" fill-opacity="1" fill-rule="nonzero" stroke="none" font-family="Arial" font-size="10" font-variant="normal" font-weight="normal" writing-mode="lr-tb" style="-inkscape-font-specification:ArialMT">0</tspan></text><text id="text3387" x="154.5" y="-526.9" transform="scale(1,-1)"><tspan id="tspan3389" x="154.5 159.7 162.69" y="-526.9" fill="#000" fill-opacity="1" fill-rule="nonzero" stroke="none" font-family="Arial" font-size="10" font-variant="normal" font-weight="normal" writing-mode="lr-tb" style="-inkscape-font-specification:ArialMT">0.1</tspan></text><text id="text3393" x="183.3" y="-526.9" transform="scale(1,-1)"><tspan id="tspan3395" x="183.3 188.6 191.59" y="-526.9" fill="#000" fill-opacity="1" fill-rule="nonzero" stroke="none" font-family="Arial" font-size="10" font-variant="normal" font-weight="normal" writing-mode="lr-tb" style="-inkscape-font-specification:ArialMT">0.2</tspan></text><text id="text3399" x="212.2" y="-526.9" transform="scale(1,-1)"><tspan id="tspan3401" x="212.2 217.4 220.39" y="-526.9" fill="#000" fill-opacity="1" fill-rule="nonzero" stroke="none" font-family="Arial" font-size="10" font-variant="normal" font-weight="normal" writing-mode="lr-tb" style="-inkscape-font-specification:ArialMT">0.3</tspan></text><text id="text3405" x="241.1" y="-526.9" transform="scale(1,-1)"><tspan id="tspan3407" x="241.1 246.4 249.39" y="-526.9" fill="#000" fill-opacity="1" fill-rule="nonzero" stroke="none" font-family="Arial" font-size="10" font-variant="normal" font-weight="normal" writing-mode="lr-tb" style="-inkscape-font-specification:ArialMT">0.4</tspan></text><text id="text3411" x="269.9" y="-526.9" transform="scale(1,-1)"><tspan id="tspan3413" x="269.9 275.2 278.19" y="-526.9" fill="#000" fill-opacity="1" fill-rule="nonzero" stroke="none" font-family="Arial" font-size="10" font-variant="normal" font-weight="normal" writing-mode="lr-tb" style="-inkscape-font-specification:ArialMT">0.5</tspan></text><text id="text3417" x="298.8" y="-526.9" transform="scale(1,-1)"><tspan id="tspan3419" x="298.8 304 306.99" y="-526.9" fill="#000" fill-opacity="1" fill-rule="nonzero" stroke="none" font-family="Arial" font-size="10" font-variant="normal" font-weight="normal" writing-mode="lr-tb" style="-inkscape-font-specification:ArialMT">0.6</tspan></text><text id="text3423" x="327.7" y="-526.9" transform="scale(1,-1)"><tspan id="tspan3425" x="327.7 333 335.99" y="-526.9" fill="#000" fill-opacity="1" fill-rule="nonzero" stroke="none" font-family="Arial" font-size="10" font-variant="normal" font-weight="normal" writing-mode="lr-tb" style="-inkscape-font-specification:ArialMT">0.7</tspan></text><text id="text3429" x="356.5" y="-526.9" transform="scale(1,-1)"><tspan id="tspan3431" x="356.5 361.7 364.69" y="-526.9" fill="#000" fill-opacity="1" fill-rule="nonzero" stroke="none" font-family="Arial" font-size="10" font-variant="normal" font-weight="normal" writing-mode="lr-tb" style="-inkscape-font-specification:ArialMT">0.8</tspan></text><text id="text3435" x="385.4" y="-526.9" transform="scale(1,-1)"><tspan id="tspan3437" x="385.4 390.6 393.59" y="-526.9" fill="#000" fill-opacity="1" fill-rule="nonzero" stroke="none" font-family="Arial" font-size="10" font-variant="normal" font-weight="normal" writing-mode="lr-tb" style="-inkscape-font-specification:ArialMT">0.9</tspan></text><text id="text3441" x="418.4" y="-526.9" transform="scale(1,-1)"><tspan id="tspan3443" x="418.4" y="-526.9" fill="#000" fill-opacity="1" fill-rule="nonzero" stroke="none" font-family="Arial" font-size="10" font-variant="normal" font-weight="normal" writing-mode="lr-tb" style="-inkscape-font-specification:ArialMT">1</tspan></text><text id="text3447" x="114.8" y="-539.9" transform="scale(1,-1)"><tspan id="tspan3449" x="114.8 120" y="-539.9" fill="#000" fill-opacity="1" fill-rule="nonzero" stroke="none" font-family="Arial" font-size="10" font-variant="normal" font-weight="normal" writing-mode="lr-tb" style="-inkscape-font-specification:ArialMT">20</tspan></text><text id="text3459" x="114.8" y="-571.3" transform="scale(1,-1)"><tspan id="tspan3461" x="114.8 120" y="-571.3" fill="#000" fill-opacity="1" fill-rule="nonzero" stroke="none" font-family="Arial" font-size="10" font-variant="normal" font-weight="normal" writing-mode="lr-tb" style="-inkscape-font-specification:ArialMT">25</tspan></text><text id="text3471" x="114.8" y="-602.8" transform="scale(1,-1)"><tspan id="tspan3473" x="114.8 120" y="-602.8" fill="#000" fill-opacity="1" fill-rule="nonzero" stroke="none" font-family="Arial" font-size="10" font-variant="normal" font-weight="normal" writing-mode="lr-tb" style="-inkscape-font-specification:ArialMT">30</tspan></text><text id="text3483" x="114.8" y="-634.2" transform="scale(1,-1)"><tspan id="tspan3485" x="114.8 120" y="-634.2" fill="#000" fill-opacity="1" fill-rule="nonzero" stroke="none" font-family="Arial" font-size="10" font-variant="normal" font-weight="normal" writing-mode="lr-tb" style="-inkscape-font-specification:ArialMT">35</tspan></text><text id="text3495" x="114.8" y="-665.7" transform="scale(1,-1)"><tspan id="tspan3497" x="114.8 120" y="-665.7" fill="#000" fill-opacity="1" fill-rule="nonzero" stroke="none" font-family="Arial" font-size="10" font-variant="normal" font-weight="normal" writing-mode="lr-tb" style="-inkscape-font-specification:ArialMT">40</tspan></text><text id="text3507" x="114.8" y="-697.1" transform="scale(1,-1)"><tspan id="tspan3509" x="114.8 120" y="-697.1" fill="#000" fill-opacity="1" fill-rule="nonzero" stroke="none" font-family="Arial" font-size="10" font-variant="normal" font-weight="normal" writing-mode="lr-tb" style="-inkscape-font-specification:ArialMT">45</tspan></text><text id="text3519" x="114.8" y="-728.5" transform="scale(1,-1)"><tspan id="tspan3521" x="114.8 120" y="-728.5" fill="#000" fill-opacity="1" fill-rule="nonzero" stroke="none" font-family="Arial" font-size="10" font-variant="normal" font-weight="normal" writing-mode="lr-tb" style="-inkscape-font-specification:ArialMT">50</tspan></text><path id="path3523" fill="#fff" fill-opacity="1" fill-rule="evenodd" stroke="none" d="m 199.4,552.9 -54.4,0 0,32.5 108.9,0 0,-32.5 -54.5,0 z"/><path id="path3527" fill="none" stroke="#004586" stroke-dasharray="none" stroke-linecap="butt" stroke-linejoin="round" stroke-miterlimit="10" stroke-opacity="1" stroke-width="2.264" d="m 159.6,576.6 22.7,0"/><path id="path3529" fill="#004586" fill-opacity="1" fill-rule="evenodd" stroke="none" d="m 168,579.6 0,-6 6,0 0,6 -6,0 z"/><path id="path3533" fill="none" stroke="none" d="m 168,579.6 0,-6 6,0 0,6 -6,0 z"/><path id="path3537" fill="none" stroke="#ff420e" stroke-dasharray="none" stroke-linecap="butt" stroke-linejoin="round" stroke-miterlimit="10" stroke-opacity="1" stroke-width="2.264" d="m 159.6,561.8 22.7,0"/><path id="path3539" fill="#ff420e" fill-opacity="1" fill-rule="evenodd" stroke="none" d="m 168,561.8 3,-3 3,3 -3,2.9 -3,-2.9 z"/><path id="path3543" fill="none" stroke="none" d="m 168,561.8 3,-3 3,3 -3,2.9 -3,-2.9 z"/><text id="text3547" x="185.2" y="-572.9" transform="scale(1,-1)"><tspan id="tspan3549" x="185.2 192.8 198 203.2 208.5 210.79 215.99 218.98 225.67 232.46" y="-572.9" fill="#000" fill-opacity="1" fill-rule="nonzero" stroke="none" font-family="Arial" font-size="10" font-variant="normal" font-weight="normal" writing-mode="lr-tb" style="-inkscape-font-specification:ArialMT">Google ASR</tspan></text><text id="text3553" x="185.2" y="-558" transform="scale(1,-1)"><tspan id="tspan3555" x="185.2 191.99 197.19 199.48 204.68 206.97 209.96 216.65 223.44" y="-558" fill="#000" fill-opacity="1" fill-rule="nonzero" stroke="none" font-family="Arial" font-size="10" font-variant="normal" font-weight="normal" writing-mode="lr-tb" style="-inkscape-font-specification:ArialMT">Kaldi ASR</tspan></text><path id="path3557" fill="#fff" fill-opacity="1" fill-rule="evenodd" stroke="none" d="m 380.3,545.2 -41.4,0 0,16.7 82.8,0 0,-16.7 -41.4,0 z"/><text id="text3561" x="340.6" y="-550.1" transform="scale(1,-1)"><tspan id="tspan3563" x="340.6 345.901 348.898 354.091 356.386 361.579 363.874 369.067 374.359 376.555 381.847 387.04 389.344 391.54 396.832 402.025 405.022 407.326 409.513 414.805" y="-550.1" fill="#000" fill-opacity="1" fill-rule="nonzero" stroke="none" font-family="Arial" font-size="9" font-variant="normal" font-weight="normal" writing-mode="lr-tb" style="-inkscape-font-specification:ArialMT">Training set portion</tspan></text><path id="path3565" fill="#fff" fill-opacity="1" fill-rule="evenodd" stroke="none" d="m 150,691.8 0,-40.6 -16.7,0 0,81.3 16.7,0 0,-40.7 z"/><text id="text3569" x="652.8" y="145" transform="matrix(0,1,1,0,0,0)"><tspan id="tspan3571" x="652.8" y="145" fill="#000" fill-opacity="1" fill-rule="nonzero" stroke="none" font-family="Arial" font-size="9" font-variant="normal" font-weight="normal" writing-mode="lr-tb" style="-inkscape-font-specification:ArialMT">W</tspan></text><text id="text3573" x="661.1" y="145" transform="matrix(0,1,1,0,0,0)"><tspan id="tspan3575" x="661.1" y="145" fill="#000" fill-opacity="1" fill-rule="nonzero" stroke="none" font-family="Arial" font-size="9" font-variant="normal" font-weight="normal" writing-mode="lr-tb" style="-inkscape-font-specification:ArialMT">o</tspan></text><text id="text3577" x="666.3" y="145" transform="matrix(0,1,1,0,0,0)"><tspan id="tspan3579" x="666.3" y="145" fill="#000" fill-opacity="1" fill-rule="nonzero" stroke="none" font-family="Arial" font-size="9" font-variant="normal" font-weight="normal" writing-mode="lr-tb" style="-inkscape-font-specification:ArialMT">r</tspan></text><text id="text3581" x="669.3" y="145" transform="matrix(0,1,1,0,0,0)"><tspan id="tspan3583" x="669.3" y="145" fill="#000" fill-opacity="1" fill-rule="nonzero" stroke="none" font-family="Arial" font-size="9" font-variant="normal" font-weight="normal" writing-mode="lr-tb" style="-inkscape-font-specification:ArialMT">d</tspan></text><text id="text3585" x="676.8" y="145" transform="matrix(0,1,1,0,0,0)"><tspan id="tspan3587" x="676.8" y="145" fill="#000" fill-opacity="1" fill-rule="nonzero" stroke="none" font-family="Arial" font-size="9" font-variant="normal" font-weight="normal" writing-mode="lr-tb" style="-inkscape-font-specification:ArialMT">e</tspan></text><text id="text3589" x="682.1" y="145" transform="matrix(0,1,1,0,0,0)"><tspan id="tspan3591" x="682.1" y="145" fill="#000" fill-opacity="1" fill-rule="nonzero" stroke="none" font-family="Arial" font-size="9" font-variant="normal" font-weight="normal" writing-mode="lr-tb" style="-inkscape-font-specification:ArialMT">r</tspan></text><text id="text3593" x="685.1" y="145" transform="matrix(0,1,1,0,0,0)"><tspan id="tspan3595" x="685.1" y="145" fill="#000" fill-opacity="1" fill-rule="nonzero" stroke="none" font-family="Arial" font-size="9" font-variant="normal" font-weight="normal" writing-mode="lr-tb" style="-inkscape-font-specification:ArialMT">r</tspan></text><text id="text3597" x="688.1" y="145" transform="matrix(0,1,1,0,0,0)"><tspan id="tspan3599" x="688.1" y="145" fill="#000" fill-opacity="1" fill-rule="nonzero" stroke="none" font-family="Arial" font-size="9" font-variant="normal" font-weight="normal" writing-mode="lr-tb" style="-inkscape-font-specification:ArialMT">o</tspan></text><text id="text3601" x="693.3" y="145" transform="matrix(0,1,1,0,0,0)"><tspan id="tspan3603" x="693.3" y="145" fill="#000" fill-opacity="1" fill-rule="nonzero" stroke="none" font-family="Arial" font-size="9" font-variant="normal" font-weight="normal" writing-mode="lr-tb" style="-inkscape-font-specification:ArialMT">r</tspan></text><text id="text3605" x="698.6" y="145" transform="matrix(0,1,1,0,0,0)"><tspan id="tspan3607" x="698.6" y="145" fill="#000" fill-opacity="1" fill-rule="nonzero" stroke="none" font-family="Arial" font-size="9" font-variant="normal" font-weight="normal" writing-mode="lr-tb" style="-inkscape-font-specification:ArialMT">r</tspan></text><text id="text3609" x="701.6" y="145" transform="matrix(0,1,1,0,0,0)"><tspan id="tspan3611" x="701.6" y="145" fill="#000" fill-opacity="1" fill-rule="nonzero" stroke="none" font-family="Arial" font-size="9" font-variant="normal" font-weight="normal" writing-mode="lr-tb" style="-inkscape-font-specification:ArialMT">a</tspan></text><text id="text3613" x="706.8" y="145" transform="matrix(0,1,1,0,0,0)"><tspan id="tspan3615" x="706.8" y="145" fill="#000" fill-opacity="1" fill-rule="nonzero" stroke="none" font-family="Arial" font-size="9" font-variant="normal" font-weight="normal" writing-mode="lr-tb" style="-inkscape-font-specification:ArialMT">t</tspan></text><text id="text3617" x="709" y="145" transform="matrix(0,1,1,0,0,0)"><tspan id="tspan3619" x="709" y="145" fill="#000" fill-opacity="1" fill-rule="nonzero" stroke="none" font-family="Arial" font-size="9" font-variant="normal" font-weight="normal" writing-mode="lr-tb" style="-inkscape-font-specification:ArialMT">e</tspan></text><text id="text3621" x="716.6" y="145" transform="matrix(0,1,1,0,0,0)"><tspan id="tspan3623" x="716.6" y="145" fill="#000" fill-opacity="1" fill-rule="nonzero" stroke="none" font-family="Arial" font-size="9" font-variant="normal" font-weight="normal" writing-mode="lr-tb" style="-inkscape-font-specification:ArialMT">(</tspan></text><text id="text3625" x="719.6" y="145" transform="matrix(0,1,1,0,0,0)"><tspan id="tspan3627" x="719.6" y="145" fill="#000" fill-opacity="1" fill-rule="nonzero" stroke="none" font-family="Arial" font-size="9" font-variant="normal" font-weight="normal" writing-mode="lr-tb" style="-inkscape-font-specification:ArialMT">%</tspan></text><text id="text3629" x="727.8" y="145" transform="matrix(0,1,1,0,0,0)"><tspan id="tspan3631" x="727.8" y="145" fill="#000" fill-opacity="1" fill-rule="nonzero" stroke="none" font-family="Arial" font-size="9" font-variant="normal" font-weight="normal" writing-mode="lr-tb" style="-inkscape-font-specification:ArialMT">)</tspan></text><g id="g7213" transform="translate(0.02205452,0.08472227)"><g id="g6236"><path id="path6238" fill="none" stroke="#004586" stroke-dasharray="none" stroke-linecap="butt" stroke-linejoin="round" stroke-miterlimit="10" stroke-opacity="1" stroke-width="2.264" d="m 161.2,696.2 28.9,0 14.4,0 14.4,0 28.9,0 28.9,0 144.3,0"/></g><path id="path6240" fill="#004586" fill-opacity="1" fill-rule="evenodd" stroke="none" d="m 157.7,699.8 0,-7.1 7.1,0 0,7.1 -7.1,0 z"/><g id="g6242"><path id="path6244" fill="none" stroke="none" d="m 157.7,699.8 0,-7.1 7.1,0 0,7.1 -7.1,0 z"/></g><g id="g6248"><path id="path6250" fill="none" stroke="none" d="m 186.5,699.8 0,-7.1 7.1,0 0,7.1 -7.1,0 z"/></g><path id="path6252" fill="#004586" fill-opacity="1" fill-rule="evenodd" stroke="none" d="m 201,699.8 0,-7.1 7.1,0 0,7.1 -7.1,0 z"/><g id="g6254"><path id="path6256" fill="none" stroke="none" d="m 201,699.8 0,-7.1 7.1,0 0,7.1 -7.1,0 z"/></g><g id="g6260"><path id="path6262" fill="none" stroke="none" d="m 215.4,699.8 0,-7.1 7.1,0 0,7.1 -7.1,0 z"/></g><g id="g6266"><path id="path6268" fill="none" stroke="none" d="m 244.3,699.8 0,-7.1 7,0 0,7.1 -7,0 z"/></g><path id="path6270" fill="#004586" fill-opacity="1" fill-rule="evenodd" stroke="none" d="m 273.1,699.8 0,-7.1 7.1,0 0,7.1 -7.1,0 z"/><g id="g6272"><path id="path6274" fill="none" stroke="none" d="m 273.1,699.8 0,-7.1 7.1,0 0,7.1 -7.1,0 z"/></g><path id="path6276" fill="#004586" fill-opacity="1" fill-rule="evenodd" stroke="none" d="m 417.4,699.8 0,-7.1 7.1,0 0,7.1 -7.1,0 z"/><g id="g6278"><path id="path6280" fill="none" stroke="none" d="m 417.4,699.8 0,-7.1 7.1,0 0,7.1 -7.1,0 z"/></g></g><g id="g4262" transform="translate(0.59016457,0.46078141)"><g id="g3311"><path id="path3313" fill="none" stroke="#ff420e" stroke-dasharray="none" stroke-linecap="butt" stroke-linejoin="round" stroke-miterlimit="10" stroke-opacity="1" stroke-width="2.264" d="m 161.2,624.8 43.3,-15.1 72.1,-10.5 57.7,-0.5 86.6,-18.8"/></g><path id="path3315-4" fill="#ff420e" fill-opacity="1" fill-rule="evenodd" stroke="none" d="m 157.6,624.8 3.6,-3.5 3.5,3.5 -3.5,3.6 -3.6,-3.6 z"/><g id="g3317"><path id="path3319-6" fill="none" stroke="none" d="m 157.6,624.8 3.6,-3.5 3.5,3.5 -3.5,3.6 -3.6,-3.6 z"/></g><path id="path3321-1" fill="#ff420e" fill-opacity="1" fill-rule="evenodd" stroke="none" d="m 200.9,609.7 3.6,-3.5 3.5,3.5 -3.5,3.6 -3.6,-3.6 z"/><g id="g3323"><path id="path3325-5" fill="none" stroke="none" d="m 200.9,609.7 3.6,-3.5 3.5,3.5 -3.5,3.6 -3.6,-3.6 z"/></g><path id="path3327-2" fill="#ff420e" fill-opacity="1" fill-rule="evenodd" stroke="none" d="m 273.1,599.2 3.5,-3.5 3.5,3.5 -3.5,3.6 -3.5,-3.6 z"/><g id="g3329"><path id="path3331-4" fill="none" stroke="none" d="m 273.1,599.2 3.5,-3.5 3.5,3.5 -3.5,3.6 -3.5,-3.6 z"/></g><path id="path3333" fill="#ff420e" fill-opacity="1" fill-rule="evenodd" stroke="none" d="m 330.8,598.7 3.5,-3.5 3.6,3.5 -3.6,3.6 -3.5,-3.6 z"/><g id="g3335"><path id="path3337-5" fill="none" stroke="none" d="m 330.8,598.7 3.5,-3.5 3.6,3.5 -3.6,3.6 -3.5,-3.6 z"/></g><path id="path3339" fill="#ff420e" fill-opacity="1" fill-rule="evenodd" stroke="none" d="m 417.4,579.9 3.5,-3.6 3.6,3.6 -3.6,3.5 -3.5,-3.5 z"/></g><path id="path3385" fill="#004586" fill-opacity="1" fill-rule="evenodd" stroke="none" d="m 331.39016,699.83472 0,-7 7.1,0 0,7 -7.1,0 z"/></g></svg>