<?xml version="1.0" encoding="UTF-8" standalone="no"?>
<!-- Created with Inkscape (http://www.inkscape.org/) -->

<svg
   xmlns:dc="http://purl.org/dc/elements/1.1/"
   xmlns:cc="http://creativecommons.org/ns#"
   xmlns:rdf="http://www.w3.org/1999/02/22-rdf-syntax-ns#"
   xmlns:svg="http://www.w3.org/2000/svg"
   xmlns="http://www.w3.org/2000/svg"
   xmlns:sodipodi="http://sodipodi.sourceforge.net/DTD/sodipodi-0.dtd"
   xmlns:inkscape="http://www.inkscape.org/namespaces/inkscape"
   id="svg2985"
   version="1.1"
   inkscape:version="0.48.2 r9819"
   width="397.21631"
   height="261.14304"
   xml:space="preserve"
   sodipodi:docname="wer.svg"><metadata
     id="metadata2991"><rdf:RDF><cc:Work
         rdf:about=""><dc:format>image/svg+xml</dc:format><dc:type
           rdf:resource="http://purl.org/dc/dcmitype/StillImage" /><dc:title></dc:title></cc:Work></rdf:RDF></metadata><defs
     id="defs2989"><clipPath
       clipPathUnits="userSpaceOnUse"
       id="clipPath2999"><path
         d="m 0,0.1 595.2,0 0,841.8 L 0,841.9 0,0.1 z"
         clip-rule="evenodd"
         id="path3001"
         inkscape:connector-curvature="0" /></clipPath><clipPath
       clipPathUnits="userSpaceOnUse"
       id="clipPath3007"><path
         d="m 56.7,771.2 481.8,0 0,14.1 -481.8,0 0,-14.1 z"
         clip-rule="evenodd"
         id="path3009"
         inkscape:connector-curvature="0" /></clipPath><clipPath
       clipPathUnits="userSpaceOnUse"
       id="clipPath3025"><path
         d="m 56.7,56.8 481.8,0 0,14.1 -481.8,0 0,-14.1 z"
         clip-rule="evenodd"
         id="path3027"
         inkscape:connector-curvature="0" /></clipPath><clipPath
       clipPathUnits="userSpaceOnUse"
       id="clipPath3049"><path
         d="m 56.6,499.4 384,0 0,264.6 -384,0 0,-264.6 z"
         clip-rule="evenodd"
         id="path3051"
         inkscape:connector-curvature="0" /></clipPath><clipPath
       clipPathUnits="userSpaceOnUse"
       id="clipPath3637"><path
         d="m -9,420 613,0 0,0.1 -613,0 0,-0.1 z"
         id="path3639"
         inkscape:connector-curvature="0" /></clipPath></defs><sodipodi:namedview
     pagecolor="#ffffff"
     bordercolor="#666666"
     borderopacity="1"
     objecttolerance="10"
     gridtolerance="10"
     guidetolerance="10"
     inkscape:pageopacity="0"
     inkscape:pageshadow="2"
     inkscape:window-width="1920"
     inkscape:window-height="1142"
     id="namedview2987"
     showgrid="false"
     fit-margin-top="0"
     fit-margin-left="0"
     fit-margin-right="0"
     fit-margin-bottom="0"
     inkscape:zoom="3.1280657"
     inkscape:cx="247.11736"
     inkscape:cy="112.35145"
     inkscape:window-x="0"
     inkscape:window-y="0"
     inkscape:window-maximized="1"
     inkscape:current-layer="g2993" /><g
     id="g2993"
     inkscape:groupmode="layer"
     inkscape:label="stats"
     transform="matrix(1.25,0,0,-1.25,-133.40869,919.60937)"><g
   id="g2995"><g
     id="g2997"
     clip-path="url(#clipPath2999)" /></g><path
   inkscape:connector-curvature="0"
   id="path3057"
   style="fill:none;stroke:#808080"
   d="m 276.7,543.7 -144.3,0 0,188.5 288.6,0 0,-188.5 -144.3,0 z" /><path
   inkscape:connector-curvature="0"
   id="path3061"
   style="fill:none;stroke:#808080"
   d="m 421,543.7 -288.6,0" /><path
   inkscape:connector-curvature="0"
   id="path3113"
   style="fill:none;stroke:#808080"
   d="m 132.4,539.5 0,4.2" /><path
   inkscape:connector-curvature="0"
   id="path3117"
   style="fill:none;stroke:#808080"
   d="m 132.4,539.5 0,4.2" /><path
   inkscape:connector-curvature="0"
   id="path3121"
   style="fill:none;stroke:#808080"
   d="m 161.2,539.5 0,4.2" /><path
   inkscape:connector-curvature="0"
   id="path3125"
   style="fill:none;stroke:#808080"
   d="m 161.2,539.5 0,4.2" /><path
   inkscape:connector-curvature="0"
   id="path3129"
   style="fill:none;stroke:#808080"
   d="m 190.1,539.5 0,4.2" /><path
   inkscape:connector-curvature="0"
   id="path3133"
   style="fill:none;stroke:#808080"
   d="m 190.1,539.5 0,4.2" /><path
   inkscape:connector-curvature="0"
   id="path3137"
   style="fill:none;stroke:#808080"
   d="m 218.9,539.5 0,4.2" /><path
   inkscape:connector-curvature="0"
   id="path3141"
   style="fill:none;stroke:#808080"
   d="m 218.9,539.5 0,4.2" /><path
   inkscape:connector-curvature="0"
   id="path3145"
   style="fill:none;stroke:#808080"
   d="m 247.8,539.5 0,4.2" /><path
   inkscape:connector-curvature="0"
   id="path3149"
   style="fill:none;stroke:#808080"
   d="m 247.8,539.5 0,4.2" /><path
   inkscape:connector-curvature="0"
   id="path3153"
   style="fill:none;stroke:#808080"
   d="m 276.7,539.5 0,4.2" /><path
   inkscape:connector-curvature="0"
   id="path3157"
   style="fill:none;stroke:#808080"
   d="m 276.7,539.5 0,4.2" /><path
   inkscape:connector-curvature="0"
   id="path3161"
   style="fill:none;stroke:#808080"
   d="m 305.5,539.5 0,4.2" /><path
   inkscape:connector-curvature="0"
   id="path3165"
   style="fill:none;stroke:#808080"
   d="m 305.5,539.5 0,4.2" /><path
   inkscape:connector-curvature="0"
   id="path3169"
   style="fill:none;stroke:#808080"
   d="m 334.4,539.5 0,4.2" /><path
   inkscape:connector-curvature="0"
   id="path3173"
   style="fill:none;stroke:#808080"
   d="m 334.4,539.5 0,4.2" /><path
   inkscape:connector-curvature="0"
   id="path3177"
   style="fill:none;stroke:#808080"
   d="m 363.2,539.5 0,4.2" /><path
   inkscape:connector-curvature="0"
   id="path3181"
   style="fill:none;stroke:#808080"
   d="m 363.2,539.5 0,4.2" /><path
   inkscape:connector-curvature="0"
   id="path3185"
   style="fill:none;stroke:#808080"
   d="m 392.1,539.5 0,4.2" /><path
   inkscape:connector-curvature="0"
   id="path3189"
   style="fill:none;stroke:#808080"
   d="m 392.1,539.5 0,4.2" /><path
   inkscape:connector-curvature="0"
   id="path3193"
   style="fill:none;stroke:#808080"
   d="m 421,539.5 0,4.2" /><path
   inkscape:connector-curvature="0"
   id="path3197"
   style="fill:none;stroke:#808080"
   d="m 421,539.5 0,4.2" /><path
   inkscape:connector-curvature="0"
   id="path3201"
   style="fill:none;stroke:#808080"
   d="m 132.4,543.7 288.6,0" /><path
   inkscape:connector-curvature="0"
   id="path3205"
   style="fill:none;stroke:#808080"
   d="m 128.1,543.7 4.3,0" /><path
   inkscape:connector-curvature="0"
   id="path3209"
   style="fill:none;stroke:#808080"
   d="m 128.1,543.7 4.3,0" /><path
   inkscape:connector-curvature="0"
   id="path3213"
   style="fill:none;stroke:#808080"
   d="m 128.1,559.4 4.3,0" /><path
   inkscape:connector-curvature="0"
   id="path3217"
   style="fill:none;stroke:#808080"
   d="m 128.1,559.4 4.3,0" /><path
   inkscape:connector-curvature="0"
   id="path3221"
   style="fill:none;stroke:#808080"
   d="m 128.1,575.1 4.3,0" /><path
   inkscape:connector-curvature="0"
   id="path3225"
   style="fill:none;stroke:#808080"
   d="m 128.1,575.1 4.3,0" /><path
   inkscape:connector-curvature="0"
   id="path3229"
   style="fill:none;stroke:#808080"
   d="m 128.1,590.9 4.3,0" /><path
   inkscape:connector-curvature="0"
   id="path3233"
   style="fill:none;stroke:#808080"
   d="m 128.1,590.9 4.3,0" /><path
   inkscape:connector-curvature="0"
   id="path3237"
   style="fill:none;stroke:#808080"
   d="m 128.1,606.6 4.3,0" /><path
   inkscape:connector-curvature="0"
   id="path3241"
   style="fill:none;stroke:#808080"
   d="m 128.1,606.6 4.3,0" /><path
   inkscape:connector-curvature="0"
   id="path3245"
   style="fill:none;stroke:#808080"
   d="m 128.1,622.3 4.3,0" /><path
   inkscape:connector-curvature="0"
   id="path3249"
   style="fill:none;stroke:#808080"
   d="m 128.1,622.3 4.3,0" /><path
   inkscape:connector-curvature="0"
   id="path3253"
   style="fill:none;stroke:#808080"
   d="m 128.1,638 4.3,0" /><path
   inkscape:connector-curvature="0"
   id="path3257"
   style="fill:none;stroke:#808080"
   d="m 128.1,638 4.3,0" /><path
   inkscape:connector-curvature="0"
   id="path3261"
   style="fill:none;stroke:#808080"
   d="m 128.1,653.7 4.3,0" /><path
   inkscape:connector-curvature="0"
   id="path3265"
   style="fill:none;stroke:#808080"
   d="m 128.1,653.7 4.3,0" /><path
   inkscape:connector-curvature="0"
   id="path3269"
   style="fill:none;stroke:#808080"
   d="m 128.1,669.4 4.3,0" /><path
   inkscape:connector-curvature="0"
   id="path3273"
   style="fill:none;stroke:#808080"
   d="m 128.1,669.4 4.3,0" /><path
   inkscape:connector-curvature="0"
   id="path3277"
   style="fill:none;stroke:#808080"
   d="m 128.1,685.1 4.3,0" /><path
   inkscape:connector-curvature="0"
   id="path3281"
   style="fill:none;stroke:#808080"
   d="m 128.1,685.1 4.3,0" /><path
   inkscape:connector-curvature="0"
   id="path3285"
   style="fill:none;stroke:#808080"
   d="m 128.1,700.9 4.3,0" /><path
   inkscape:connector-curvature="0"
   id="path3289"
   style="fill:none;stroke:#808080"
   d="m 128.1,700.9 4.3,0" /><path
   inkscape:connector-curvature="0"
   id="path3293"
   style="fill:none;stroke:#808080"
   d="m 128.1,716.6 4.3,0" /><path
   inkscape:connector-curvature="0"
   id="path3297"
   style="fill:none;stroke:#808080"
   d="m 128.1,716.6 4.3,0" /><path
   inkscape:connector-curvature="0"
   id="path3301"
   style="fill:none;stroke:#808080"
   d="m 128.1,732.3 4.3,0" /><path
   inkscape:connector-curvature="0"
   id="path3305"
   style="fill:none;stroke:#808080"
   d="m 128.1,732.3 4.3,0" /><path
   inkscape:connector-curvature="0"
   id="path3309"
   style="fill:none;stroke:#808080"
   d="m 132.4,543.7 0,188.6" /><path
   inkscape:connector-curvature="0"
   id="path3319"
   style="fill:none;stroke:none"
   d="m 157.7,621.9 3.5,-3.5 3.6,3.5 -3.6,3.6 -3.5,-3.6 z" /><path
   inkscape:connector-curvature="0"
   id="path3325"
   style="fill:none;stroke:none"
   d="m 186.5,612.4 3.6,-3.6 3.5,3.6 -3.5,3.5 -3.6,-3.5 z" /><path
   inkscape:connector-curvature="0"
   id="path3331"
   style="fill:none;stroke:none"
   d="m 201,607.8 3.5,-3.6 3.6,3.6 -3.6,3.5 -3.5,-3.5 z" /><path
   inkscape:connector-curvature="0"
   id="path3337"
   style="fill:none;stroke:none"
   d="m 273.1,596.6 3.6,-3.5 3.5,3.5 -3.5,3.5 -3.6,-3.5 z" /><path
   inkscape:connector-curvature="0"
   id="path3343"
   style="fill:none;stroke:none"
   d="m 417.4,578.9 3.6,-3.6 3.5,3.6 -3.5,3.5 -3.6,-3.5 z" /><g
   id="g5850"
   style="stroke-width:0.16;stroke-miterlimit:4;stroke-dasharray:none"><path
     d="m 421,700.9 -288.6,0"
     style="fill:none;stroke:#808080;stroke-width:0.16;stroke-miterlimit:4;stroke-dasharray:none"
     id="path3101"
     inkscape:connector-curvature="0" /><path
     d="m 421,559.4 -288.6,0"
     style="fill:none;stroke:#808080;stroke-width:0.16;stroke-miterlimit:4;stroke-dasharray:none"
     id="path3065"
     inkscape:connector-curvature="0" /><path
     d="m 421,575.1 -288.6,0"
     style="fill:none;stroke:#808080;stroke-width:0.16;stroke-miterlimit:4;stroke-dasharray:none"
     id="path3069"
     inkscape:connector-curvature="0" /><path
     d="m 421,590.9 -288.6,0"
     style="fill:none;stroke:#808080;stroke-width:0.16;stroke-miterlimit:4;stroke-dasharray:none"
     id="path3073"
     inkscape:connector-curvature="0" /><path
     d="m 421,606.6 -288.6,0"
     style="fill:none;stroke:#808080;stroke-width:0.16;stroke-miterlimit:4;stroke-dasharray:none"
     id="path3077"
     inkscape:connector-curvature="0" /><path
     d="m 421,622.3 -288.6,0"
     style="fill:none;stroke:#808080;stroke-width:0.16;stroke-miterlimit:4;stroke-dasharray:none"
     id="path3081"
     inkscape:connector-curvature="0" /><path
     d="m 421,638 -288.6,0"
     style="fill:none;stroke:#808080;stroke-width:0.16;stroke-miterlimit:4;stroke-dasharray:none"
     id="path3085"
     inkscape:connector-curvature="0" /><path
     d="m 421,653.7 -288.6,0"
     style="fill:none;stroke:#808080;stroke-width:0.16;stroke-miterlimit:4;stroke-dasharray:none"
     id="path3089"
     inkscape:connector-curvature="0" /><path
     d="m 421,669.4 -288.6,0"
     style="fill:none;stroke:#808080;stroke-width:0.16;stroke-miterlimit:4;stroke-dasharray:none"
     id="path3093"
     inkscape:connector-curvature="0" /><path
     d="m 421,685.1 -288.6,0"
     style="fill:none;stroke:#808080;stroke-width:0.16;stroke-miterlimit:4;stroke-dasharray:none"
     id="path3097"
     inkscape:connector-curvature="0" /><path
     d="m 421,716.6 -288.6,0"
     style="fill:none;stroke:#808080;stroke-width:0.16;stroke-miterlimit:4;stroke-dasharray:none"
     id="path3105"
     inkscape:connector-curvature="0" /><path
     d="m 421,732.3 -288.6,0"
     style="fill:none;stroke:#808080;stroke-width:0.16;stroke-miterlimit:4;stroke-dasharray:none"
     id="path3109"
     inkscape:connector-curvature="0" /></g><path
   inkscape:connector-curvature="0"
   id="path3347"
   style="fill:none;stroke:#004586;stroke-width:2.26399994;stroke-linecap:butt;stroke-linejoin:round;stroke-miterlimit:4;stroke-opacity:1;stroke-dasharray:none"
   d="m 161.2,696.2 28.9,0 14.4,0 72.2,0 144.3,0" /><path
   d="m 157.7,699.8 0,-7.1 7.1,0 0,7.1 -7.1,0 z"
   style="fill:#004586;fill-opacity:1;fill-rule:evenodd;stroke:none"
   id="path3349"
   inkscape:connector-curvature="0" /><path
   inkscape:connector-curvature="0"
   id="path3353"
   style="fill:none;stroke:none"
   d="m 157.7,699.8 0,-7.1 7.1,0 0,7.1 -7.1,0 z" /><path
   inkscape:connector-curvature="0"
   id="path3359"
   style="fill:none;stroke:none"
   d="m 186.5,699.8 0,-7.1 7.1,0 0,7.1 -7.1,0 z" /><path
   d="m 201,699.8 0,-7.1 7.1,0 0,7.1 -7.1,0 z"
   style="fill:#004586;fill-opacity:1;fill-rule:evenodd;stroke:none"
   id="path3361"
   inkscape:connector-curvature="0" /><path
   inkscape:connector-curvature="0"
   id="path3365"
   style="fill:none;stroke:none"
   d="m 201,699.8 0,-7.1 7.1,0 0,7.1 -7.1,0 z" /><path
   d="m 273.1,699.8 0,-7.1 7.1,0 0,7.1 -7.1,0 z"
   style="fill:#004586;fill-opacity:1;fill-rule:evenodd;stroke:none"
   id="path3367"
   inkscape:connector-curvature="0" /><path
   inkscape:connector-curvature="0"
   id="path3371"
   style="fill:none;stroke:none"
   d="m 273.1,699.8 0,-7.1 7.1,0 0,7.1 -7.1,0 z" /><path
   d="m 417.4,699.8 0,-7.1 7.1,0 0,7.1 -7.1,0 z"
   style="fill:#004586;fill-opacity:1;fill-rule:evenodd;stroke:none"
   id="path3373"
   inkscape:connector-curvature="0" /><path
   inkscape:connector-curvature="0"
   id="path3377"
   style="fill:none;stroke:none"
   d="m 417.4,699.8 0,-7.1 7.1,0 0,7.1 -7.1,0 z" /><text
   id="text3381"
   transform="scale(1,-1)"
   x="129.7"
   y="-526.90002"><tspan
     id="tspan3383"
     y="-526.90002"
     x="129.7"
     style="font-size:10px;font-variant:normal;font-weight:normal;writing-mode:lr-tb;fill:#000000;fill-opacity:1;fill-rule:nonzero;stroke:none;font-family:Arial;-inkscape-font-specification:ArialMT">0</tspan></text>

<text
   id="text3387"
   transform="scale(1,-1)"
   x="154.5"
   y="-526.90002"><tspan
     id="tspan3389"
     sodipodi:role="line"
     y="-526.90002"
     x="154.5 159.7 162.69"
     style="font-size:10px;font-variant:normal;font-weight:normal;writing-mode:lr-tb;fill:#000000;fill-opacity:1;fill-rule:nonzero;stroke:none;font-family:Arial;-inkscape-font-specification:ArialMT">0.1</tspan></text>

<text
   id="text3393"
   transform="scale(1,-1)"
   x="183.3"
   y="-526.90002"><tspan
     id="tspan3395"
     sodipodi:role="line"
     y="-526.90002"
     x="183.3 188.60001 191.59"
     style="font-size:10px;font-variant:normal;font-weight:normal;writing-mode:lr-tb;fill:#000000;fill-opacity:1;fill-rule:nonzero;stroke:none;font-family:Arial;-inkscape-font-specification:ArialMT">0.2</tspan></text>

<text
   id="text3399"
   transform="scale(1,-1)"
   x="212.2"
   y="-526.90002"><tspan
     id="tspan3401"
     sodipodi:role="line"
     y="-526.90002"
     x="212.2 217.39999 220.39"
     style="font-size:10px;font-variant:normal;font-weight:normal;writing-mode:lr-tb;fill:#000000;fill-opacity:1;fill-rule:nonzero;stroke:none;font-family:Arial;-inkscape-font-specification:ArialMT">0.3</tspan></text>

<text
   id="text3405"
   transform="scale(1,-1)"
   x="241.10001"
   y="-526.90002"><tspan
     id="tspan3407"
     sodipodi:role="line"
     y="-526.90002"
     x="241.10001 246.39999 249.39"
     style="font-size:10px;font-variant:normal;font-weight:normal;writing-mode:lr-tb;fill:#000000;fill-opacity:1;fill-rule:nonzero;stroke:none;font-family:Arial;-inkscape-font-specification:ArialMT">0.4</tspan></text>

<text
   id="text3411"
   transform="scale(1,-1)"
   x="269.89999"
   y="-526.90002"><tspan
     id="tspan3413"
     sodipodi:role="line"
     y="-526.90002"
     x="269.89999 275.20001 278.19"
     style="font-size:10px;font-variant:normal;font-weight:normal;writing-mode:lr-tb;fill:#000000;fill-opacity:1;fill-rule:nonzero;stroke:none;font-family:Arial;-inkscape-font-specification:ArialMT">0.5</tspan></text>

<text
   id="text3417"
   transform="scale(1,-1)"
   x="298.79999"
   y="-526.90002"><tspan
     id="tspan3419"
     sodipodi:role="line"
     y="-526.90002"
     x="298.79999 304 306.98999"
     style="font-size:10px;font-variant:normal;font-weight:normal;writing-mode:lr-tb;fill:#000000;fill-opacity:1;fill-rule:nonzero;stroke:none;font-family:Arial;-inkscape-font-specification:ArialMT">0.6</tspan></text>

<text
   id="text3423"
   transform="scale(1,-1)"
   x="327.70001"
   y="-526.90002"><tspan
     id="tspan3425"
     sodipodi:role="line"
     y="-526.90002"
     x="327.70001 333 335.98999"
     style="font-size:10px;font-variant:normal;font-weight:normal;writing-mode:lr-tb;fill:#000000;fill-opacity:1;fill-rule:nonzero;stroke:none;font-family:Arial;-inkscape-font-specification:ArialMT">0.7</tspan></text>

<text
   id="text3429"
   transform="scale(1,-1)"
   x="356.5"
   y="-526.90002"><tspan
     id="tspan3431"
     sodipodi:role="line"
     y="-526.90002"
     x="356.5 361.70001 364.69"
     style="font-size:10px;font-variant:normal;font-weight:normal;writing-mode:lr-tb;fill:#000000;fill-opacity:1;fill-rule:nonzero;stroke:none;font-family:Arial;-inkscape-font-specification:ArialMT">0.8</tspan></text>

<text
   id="text3435"
   transform="scale(1,-1)"
   x="385.39999"
   y="-526.90002"><tspan
     id="tspan3437"
     sodipodi:role="line"
     y="-526.90002"
     x="385.39999 390.60001 393.59"
     style="font-size:10px;font-variant:normal;font-weight:normal;writing-mode:lr-tb;fill:#000000;fill-opacity:1;fill-rule:nonzero;stroke:none;font-family:Arial;-inkscape-font-specification:ArialMT">0.9</tspan></text>

<text
   id="text3441"
   transform="scale(1,-1)"
   x="418.39999"
   y="-526.90002"><tspan
     id="tspan3443"
     y="-526.90002"
     x="418.39999"
     style="font-size:10px;font-variant:normal;font-weight:normal;writing-mode:lr-tb;fill:#000000;fill-opacity:1;fill-rule:nonzero;stroke:none;font-family:Arial;-inkscape-font-specification:ArialMT">1</tspan></text>

<text
   id="text3447"
   transform="scale(1,-1)"
   x="114.8"
   y="-539.90002"><tspan
     id="tspan3449"
     sodipodi:role="line"
     y="-539.90002"
     x="114.8 120"
     style="font-size:10px;font-variant:normal;font-weight:normal;writing-mode:lr-tb;fill:#000000;fill-opacity:1;fill-rule:nonzero;stroke:none;font-family:Arial;-inkscape-font-specification:ArialMT">20</tspan></text>

<text
   id="text3459"
   transform="scale(1,-1)"
   x="114.8"
   y="-571.29999"><tspan
     id="tspan3461"
     sodipodi:role="line"
     y="-571.29999"
     x="114.8 120"
     style="font-size:10px;font-variant:normal;font-weight:normal;writing-mode:lr-tb;fill:#000000;fill-opacity:1;fill-rule:nonzero;stroke:none;font-family:Arial;-inkscape-font-specification:ArialMT">25</tspan></text>

<text
   id="text3471"
   transform="scale(1,-1)"
   x="114.8"
   y="-602.79999"><tspan
     id="tspan3473"
     sodipodi:role="line"
     y="-602.79999"
     x="114.8 120"
     style="font-size:10px;font-variant:normal;font-weight:normal;writing-mode:lr-tb;fill:#000000;fill-opacity:1;fill-rule:nonzero;stroke:none;font-family:Arial;-inkscape-font-specification:ArialMT">30</tspan></text>

<text
   id="text3483"
   transform="scale(1,-1)"
   x="114.8"
   y="-634.20001"><tspan
     id="tspan3485"
     sodipodi:role="line"
     y="-634.20001"
     x="114.8 120"
     style="font-size:10px;font-variant:normal;font-weight:normal;writing-mode:lr-tb;fill:#000000;fill-opacity:1;fill-rule:nonzero;stroke:none;font-family:Arial;-inkscape-font-specification:ArialMT">35</tspan></text>

<text
   id="text3495"
   transform="scale(1,-1)"
   x="114.8"
   y="-665.70001"><tspan
     id="tspan3497"
     sodipodi:role="line"
     y="-665.70001"
     x="114.8 120"
     style="font-size:10px;font-variant:normal;font-weight:normal;writing-mode:lr-tb;fill:#000000;fill-opacity:1;fill-rule:nonzero;stroke:none;font-family:Arial;-inkscape-font-specification:ArialMT">40</tspan></text>

<text
   id="text3507"
   transform="scale(1,-1)"
   x="114.8"
   y="-697.09998"><tspan
     id="tspan3509"
     sodipodi:role="line"
     y="-697.09998"
     x="114.8 120"
     style="font-size:10px;font-variant:normal;font-weight:normal;writing-mode:lr-tb;fill:#000000;fill-opacity:1;fill-rule:nonzero;stroke:none;font-family:Arial;-inkscape-font-specification:ArialMT">45</tspan></text>

<text
   id="text3519"
   transform="scale(1,-1)"
   x="114.8"
   y="-728.5"><tspan
     id="tspan3521"
     sodipodi:role="line"
     y="-728.5"
     x="114.8 120"
     style="font-size:10px;font-variant:normal;font-weight:normal;writing-mode:lr-tb;fill:#000000;fill-opacity:1;fill-rule:nonzero;stroke:none;font-family:Arial;-inkscape-font-specification:ArialMT">50</tspan></text>

<path
   d="m 199.4,552.9 -54.4,0 0,32.5 108.9,0 0,-32.5 -54.5,0 z"
   style="fill:#ffffff;fill-opacity:1;fill-rule:evenodd;stroke:none"
   id="path3523"
   inkscape:connector-curvature="0" /><path
   inkscape:connector-curvature="0"
   id="path3527"
   style="fill:none;stroke:#004586;stroke-width:2.26379991;stroke-linecap:butt;stroke-linejoin:round;stroke-miterlimit:10;stroke-opacity:1;stroke-dasharray:none"
   d="m 159.6,576.6 22.7,0" /><path
   d="m 168,579.6 0,-6 6,0 0,6 -6,0 z"
   style="fill:#004586;fill-opacity:1;fill-rule:evenodd;stroke:none"
   id="path3529"
   inkscape:connector-curvature="0" /><path
   inkscape:connector-curvature="0"
   id="path3533"
   style="fill:none;stroke:none"
   d="m 168,579.6 0,-6 6,0 0,6 -6,0 z" /><path
   inkscape:connector-curvature="0"
   id="path3537"
   style="fill:none;stroke:#ff420e;stroke-width:2.26379991;stroke-linecap:butt;stroke-linejoin:round;stroke-miterlimit:10;stroke-opacity:1;stroke-dasharray:none"
   d="m 159.6,561.8 22.7,0" /><path
   d="m 168,561.8 3,-3 3,3 -3,2.9 -3,-2.9 z"
   style="fill:#ff420e;fill-opacity:1;fill-rule:evenodd;stroke:none"
   id="path3539"
   inkscape:connector-curvature="0" /><path
   inkscape:connector-curvature="0"
   id="path3543"
   style="fill:none;stroke:none"
   d="m 168,561.8 3,-3 3,3 -3,2.9 -3,-2.9 z" /><text
   id="text3547"
   transform="scale(1,-1)"
   x="185.2"
   y="-572.90002"><tspan
     id="tspan3549"
     sodipodi:role="line"
     y="-572.90002"
     x="185.2 192.8 198 203.2 208.5 210.78999 215.99001 218.98 225.67 232.45999"
     style="font-size:10px;font-variant:normal;font-weight:normal;writing-mode:lr-tb;fill:#000000;fill-opacity:1;fill-rule:nonzero;stroke:none;font-family:Arial;-inkscape-font-specification:ArialMT">Google ASR</tspan></text>

<text
   id="text3553"
   transform="scale(1,-1)"
   x="185.2"
   y="-558"><tspan
     id="tspan3555"
     sodipodi:role="line"
     y="-558"
     x="185.2 191.99001 197.19 199.48 204.67999 206.97 209.96001 216.64999 223.44"
     style="font-size:10px;font-variant:normal;font-weight:normal;writing-mode:lr-tb;fill:#000000;fill-opacity:1;fill-rule:nonzero;stroke:none;font-family:Arial;-inkscape-font-specification:ArialMT">Kaldi ASR</tspan></text>

<path
   d="m 380.3,545.2 -41.4,0 0,16.7 82.8,0 0,-16.7 -41.4,0 z"
   style="fill:#ffffff;fill-opacity:1;fill-rule:evenodd;stroke:none"
   id="path3557"
   inkscape:connector-curvature="0" /><text
   id="text3561"
   transform="scale(1,-1)"
   x="340.60001"
   y="-550.09998"><tspan
     id="tspan3563"
     sodipodi:role="line"
     y="-550.09998"
     x="340.60001 345.901 348.89801 354.091 356.38599 361.57901 363.87399 369.06699 374.35901 376.55499 381.84702 387.04001 389.34399 391.54001 396.832 402.02499 405.022 407.32599 409.513 414.80499"
     style="font-size:9px;font-variant:normal;font-weight:normal;writing-mode:lr-tb;fill:#000000;fill-opacity:1;fill-rule:nonzero;stroke:none;font-family:Arial;-inkscape-font-specification:ArialMT">Training set portion</tspan></text>

<path
   d="m 150,691.8 0,-40.6 -16.7,0 0,81.3 16.7,0 0,-40.7 z"
   style="fill:#ffffff;fill-opacity:1;fill-rule:evenodd;stroke:none"
   id="path3565"
   inkscape:connector-curvature="0" /><text
   id="text3569"
   transform="matrix(0,1,1,0,0,0)"
   x="652.79999"
   y="145"><tspan
     id="tspan3571"
     y="145"
     x="652.79999"
     style="font-size:9px;font-variant:normal;font-weight:normal;writing-mode:lr-tb;fill:#000000;fill-opacity:1;fill-rule:nonzero;stroke:none;font-family:Arial;-inkscape-font-specification:ArialMT">W</tspan></text>

<text
   id="text3573"
   transform="matrix(0,1,1,0,0,0)"
   x="661.09998"
   y="145"><tspan
     id="tspan3575"
     y="145"
     x="661.09998"
     style="font-size:9px;font-variant:normal;font-weight:normal;writing-mode:lr-tb;fill:#000000;fill-opacity:1;fill-rule:nonzero;stroke:none;font-family:Arial;-inkscape-font-specification:ArialMT">o</tspan></text>

<text
   id="text3577"
   transform="matrix(0,1,1,0,0,0)"
   x="666.29999"
   y="145"><tspan
     id="tspan3579"
     y="145"
     x="666.29999"
     style="font-size:9px;font-variant:normal;font-weight:normal;writing-mode:lr-tb;fill:#000000;fill-opacity:1;fill-rule:nonzero;stroke:none;font-family:Arial;-inkscape-font-specification:ArialMT">r</tspan></text>

<text
   id="text3581"
   transform="matrix(0,1,1,0,0,0)"
   x="669.29999"
   y="145"><tspan
     id="tspan3583"
     y="145"
     x="669.29999"
     style="font-size:9px;font-variant:normal;font-weight:normal;writing-mode:lr-tb;fill:#000000;fill-opacity:1;fill-rule:nonzero;stroke:none;font-family:Arial;-inkscape-font-specification:ArialMT">d</tspan></text>

<text
   id="text3585"
   transform="matrix(0,1,1,0,0,0)"
   x="676.79999"
   y="145"><tspan
     id="tspan3587"
     y="145"
     x="676.79999"
     style="font-size:9px;font-variant:normal;font-weight:normal;writing-mode:lr-tb;fill:#000000;fill-opacity:1;fill-rule:nonzero;stroke:none;font-family:Arial;-inkscape-font-specification:ArialMT">e</tspan></text>

<text
   id="text3589"
   transform="matrix(0,1,1,0,0,0)"
   x="682.09998"
   y="145"><tspan
     id="tspan3591"
     y="145"
     x="682.09998"
     style="font-size:9px;font-variant:normal;font-weight:normal;writing-mode:lr-tb;fill:#000000;fill-opacity:1;fill-rule:nonzero;stroke:none;font-family:Arial;-inkscape-font-specification:ArialMT">r</tspan></text>

<text
   id="text3593"
   transform="matrix(0,1,1,0,0,0)"
   x="685.09998"
   y="145"><tspan
     id="tspan3595"
     y="145"
     x="685.09998"
     style="font-size:9px;font-variant:normal;font-weight:normal;writing-mode:lr-tb;fill:#000000;fill-opacity:1;fill-rule:nonzero;stroke:none;font-family:Arial;-inkscape-font-specification:ArialMT">r</tspan></text>

<text
   id="text3597"
   transform="matrix(0,1,1,0,0,0)"
   x="688.09998"
   y="145"><tspan
     id="tspan3599"
     y="145"
     x="688.09998"
     style="font-size:9px;font-variant:normal;font-weight:normal;writing-mode:lr-tb;fill:#000000;fill-opacity:1;fill-rule:nonzero;stroke:none;font-family:Arial;-inkscape-font-specification:ArialMT">o</tspan></text>

<text
   id="text3601"
   transform="matrix(0,1,1,0,0,0)"
   x="693.29999"
   y="145"><tspan
     id="tspan3603"
     y="145"
     x="693.29999"
     style="font-size:9px;font-variant:normal;font-weight:normal;writing-mode:lr-tb;fill:#000000;fill-opacity:1;fill-rule:nonzero;stroke:none;font-family:Arial;-inkscape-font-specification:ArialMT">r</tspan></text>

<text
   id="text3605"
   transform="matrix(0,1,1,0,0,0)"
   x="698.59998"
   y="145"><tspan
     id="tspan3607"
     y="145"
     x="698.59998"
     style="font-size:9px;font-variant:normal;font-weight:normal;writing-mode:lr-tb;fill:#000000;fill-opacity:1;fill-rule:nonzero;stroke:none;font-family:Arial;-inkscape-font-specification:ArialMT">r</tspan></text>

<text
   id="text3609"
   transform="matrix(0,1,1,0,0,0)"
   x="701.59998"
   y="145"><tspan
     id="tspan3611"
     y="145"
     x="701.59998"
     style="font-size:9px;font-variant:normal;font-weight:normal;writing-mode:lr-tb;fill:#000000;fill-opacity:1;fill-rule:nonzero;stroke:none;font-family:Arial;-inkscape-font-specification:ArialMT">a</tspan></text>

<text
   id="text3613"
   transform="matrix(0,1,1,0,0,0)"
   x="706.79999"
   y="145"><tspan
     id="tspan3615"
     y="145"
     x="706.79999"
     style="font-size:9px;font-variant:normal;font-weight:normal;writing-mode:lr-tb;fill:#000000;fill-opacity:1;fill-rule:nonzero;stroke:none;font-family:Arial;-inkscape-font-specification:ArialMT">t</tspan></text>

<text
   id="text3617"
   transform="matrix(0,1,1,0,0,0)"
   x="709"
   y="145"><tspan
     id="tspan3619"
     y="145"
     x="709"
     style="font-size:9px;font-variant:normal;font-weight:normal;writing-mode:lr-tb;fill:#000000;fill-opacity:1;fill-rule:nonzero;stroke:none;font-family:Arial;-inkscape-font-specification:ArialMT">e</tspan></text>

<text
   id="text3621"
   transform="matrix(0,1,1,0,0,0)"
   x="716.59998"
   y="145"><tspan
     id="tspan3623"
     y="145"
     x="716.59998"
     style="font-size:9px;font-variant:normal;font-weight:normal;writing-mode:lr-tb;fill:#000000;fill-opacity:1;fill-rule:nonzero;stroke:none;font-family:Arial;-inkscape-font-specification:ArialMT">(</tspan></text>

<text
   id="text3625"
   transform="matrix(0,1,1,0,0,0)"
   x="719.59998"
   y="145"><tspan
     id="tspan3627"
     y="145"
     x="719.59998"
     style="font-size:9px;font-variant:normal;font-weight:normal;writing-mode:lr-tb;fill:#000000;fill-opacity:1;fill-rule:nonzero;stroke:none;font-family:Arial;-inkscape-font-specification:ArialMT">%</tspan></text>

<text
   id="text3629"
   transform="matrix(0,1,1,0,0,0)"
   x="727.79999"
   y="145"><tspan
     id="tspan3631"
     y="145"
     x="727.79999"
     style="font-size:9px;font-variant:normal;font-weight:normal;writing-mode:lr-tb;fill:#000000;fill-opacity:1;fill-rule:nonzero;stroke:none;font-family:Arial;-inkscape-font-specification:ArialMT">)</tspan></text>

<g
   id="g3633"><g
     id="g3635" /><g
     id="g3641"><g
       clip-path="url(#clipPath3637)"
       id="g3643"
       style="opacity:0.5" /></g></g><g
   transform="translate(0.02205452,0.08472227)"
   id="g7213"><g
     id="g6236"><path
       inkscape:connector-curvature="0"
       id="path6238"
       style="fill:none;stroke:#004586;stroke-width:2.26379991;stroke-linecap:butt;stroke-linejoin:round;stroke-miterlimit:10;stroke-opacity:1;stroke-dasharray:none"
       d="m 161.2,696.2 28.9,0 14.4,0 14.4,0 28.9,0 28.9,0 144.3,0" /></g><path
     inkscape:connector-curvature="0"
     id="path6240"
     style="fill:#004586;fill-opacity:1;fill-rule:evenodd;stroke:none"
     d="m 157.7,699.8 0,-7.1 7.1,0 0,7.1 -7.1,0 z" /><g
     id="g6242"><path
       inkscape:connector-curvature="0"
       id="path6244"
       style="fill:none;stroke:none"
       d="m 157.7,699.8 0,-7.1 7.1,0 0,7.1 -7.1,0 z" /></g><g
     id="g6248"><path
       inkscape:connector-curvature="0"
       id="path6250"
       style="fill:none;stroke:none"
       d="m 186.5,699.8 0,-7.1 7.1,0 0,7.1 -7.1,0 z" /></g><path
     inkscape:connector-curvature="0"
     id="path6252"
     style="fill:#004586;fill-opacity:1;fill-rule:evenodd;stroke:none"
     d="m 201,699.8 0,-7.1 7.1,0 0,7.1 -7.1,0 z" /><g
     id="g6254"><path
       inkscape:connector-curvature="0"
       id="path6256"
       style="fill:none;stroke:none"
       d="m 201,699.8 0,-7.1 7.1,0 0,7.1 -7.1,0 z" /></g><g
     id="g6260"><path
       inkscape:connector-curvature="0"
       id="path6262"
       style="fill:none;stroke:none"
       d="m 215.4,699.8 0,-7.1 7.1,0 0,7.1 -7.1,0 z" /></g><g
     id="g6266"><path
       inkscape:connector-curvature="0"
       id="path6268"
       style="fill:none;stroke:none"
       d="m 244.3,699.8 0,-7.1 7,0 0,7.1 -7,0 z" /></g><path
     inkscape:connector-curvature="0"
     id="path6270"
     style="fill:#004586;fill-opacity:1;fill-rule:evenodd;stroke:none"
     d="m 273.1,699.8 0,-7.1 7.1,0 0,7.1 -7.1,0 z" /><g
     id="g6272"><path
       inkscape:connector-curvature="0"
       id="path6274"
       style="fill:none;stroke:none"
       d="m 273.1,699.8 0,-7.1 7.1,0 0,7.1 -7.1,0 z" /></g><path
     inkscape:connector-curvature="0"
     id="path6276"
     style="fill:#004586;fill-opacity:1;fill-rule:evenodd;stroke:none"
     d="m 417.4,699.8 0,-7.1 7.1,0 0,7.1 -7.1,0 z" /><g
     id="g6278"><path
       inkscape:connector-curvature="0"
       id="path6280"
       style="fill:none;stroke:none"
       d="m 417.4,699.8 0,-7.1 7.1,0 0,7.1 -7.1,0 z" /></g></g><g
   transform="translate(0.59016457,0.46078141)"
   id="g4262"><g
     id="g3311"><path
       inkscape:connector-curvature="0"
       id="path3313"
       style="fill:none;stroke:#ff420e;stroke-width:2.26398993;stroke-linecap:butt;stroke-linejoin:round;stroke-miterlimit:10;stroke-opacity:1;stroke-dasharray:none"
       d="m 161.2,624.8 43.3,-15.1 72.1,-10.5 57.7,-0.5 86.6,-18.8" /></g><path
     inkscape:connector-curvature="0"
     id="path3315-4"
     style="fill:#ff420e;fill-opacity:1;fill-rule:evenodd;stroke:none"
     d="m 157.6,624.8 3.6,-3.5 3.5,3.5 -3.5,3.6 -3.6,-3.6 z" /><g
     id="g3317"><path
       inkscape:connector-curvature="0"
       id="path3319-6"
       style="fill:none;stroke:none"
       d="m 157.6,624.8 3.6,-3.5 3.5,3.5 -3.5,3.6 -3.6,-3.6 z" /></g><path
     inkscape:connector-curvature="0"
     id="path3321-1"
     style="fill:#ff420e;fill-opacity:1;fill-rule:evenodd;stroke:none"
     d="m 200.9,609.7 3.6,-3.5 3.5,3.5 -3.5,3.6 -3.6,-3.6 z" /><g
     id="g3323"><path
       inkscape:connector-curvature="0"
       id="path3325-5"
       style="fill:none;stroke:none"
       d="m 200.9,609.7 3.6,-3.5 3.5,3.5 -3.5,3.6 -3.6,-3.6 z" /></g><path
     inkscape:connector-curvature="0"
     id="path3327-2"
     style="fill:#ff420e;fill-opacity:1;fill-rule:evenodd;stroke:none"
     d="m 273.1,599.2 3.5,-3.5 3.5,3.5 -3.5,3.6 -3.5,-3.6 z" /><g
     id="g3329"><path
       inkscape:connector-curvature="0"
       id="path3331-4"
       style="fill:none;stroke:none"
       d="m 273.1,599.2 3.5,-3.5 3.5,3.5 -3.5,3.6 -3.5,-3.6 z" /></g><path
     inkscape:connector-curvature="0"
     id="path3333"
     style="fill:#ff420e;fill-opacity:1;fill-rule:evenodd;stroke:none"
     d="m 330.8,598.7 3.5,-3.5 3.6,3.5 -3.6,3.6 -3.5,-3.6 z" /><g
     id="g3335"><path
       inkscape:connector-curvature="0"
       id="path3337-5"
       style="fill:none;stroke:none"
       d="m 330.8,598.7 3.5,-3.5 3.6,3.5 -3.6,3.6 -3.5,-3.6 z" /></g><path
     inkscape:connector-curvature="0"
     id="path3339"
     style="fill:#ff420e;fill-opacity:1;fill-rule:evenodd;stroke:none"
     d="m 417.4,579.9 3.5,-3.6 3.6,3.6 -3.6,3.5 -3.5,-3.5 z" /></g><path
   d="m 331.39016,699.83472 0,-7 7.1,0 0,7 -7.1,0 z"
   style="fill:#004586;fill-opacity:1;fill-rule:evenodd;stroke:none"
   id="path3385"
   inkscape:connector-curvature="0" /></g></svg>